<?xml version="1.0" encoding="utf-8"?>
<!-- Generator: Adobe Illustrator 16.0.3, SVG Export Plug-In . SVG Version: 6.00 Build 0)  -->
<!DOCTYPE svg PUBLIC "-//W3C//DTD SVG 1.1//EN" "http://www.w3.org/Graphics/SVG/1.1/DTD/svg11.dtd">
<svg version="1.1" id="Calque_3" xmlns="http://www.w3.org/2000/svg" xmlns:xlink="http://www.w3.org/1999/xlink" x="0px" y="0px"
	 width="450px" height="240px" viewBox="0 0 450 240" enable-background="new 0 0 450 240" xml:space="preserve">
<g id="layer1_2_" transform="translate(-4397.099,-577.1118)">
	<g id="g45263_2_" transform="translate(10.62987,8.863696)">
		<path id="path45125_2_" fill="#010101" d="M4686.324,575.386c13.199-6.483,19.742-5.633,19.889,0.938
			c0.176,8.538-1.085,19.89-1.995,28.104c-4.9,44.645-13.084,81.127-13.699,126.967c21.562-55.82,39.63-94.615,62.924-142.398
			c7.394-15.225,12.116-12.379,18.188-15.078c23.644-10.531,24.525-4.079,21.444,8.801c-11.471,47.7-40.837,197.886-45.324,221.011
			c-1.291,6.69-8.566,3.854-10.443,1.238c-8.419-11.647-17.923-11.829-16.868-19.572c5.28-38.559,24.289-135.294,29.248-158.087
			c-25.258,51.782-51.454,116.518-64.92,153.224c-2.846,7.793-8.038,7.22-11.265,1.519c-4.549-8.012-13.378-12.102-14.844-21.568
			c-4.605-30.098,5.281-87.466,6.658-123.76c-13.758,39.646-36.846,116.621-46.966,151.398c-4.166,14.39-18.072,12.041-14.375-1.983
			c15.372-58.363,48.493-161.586,62.809-198.695C4670.16,578.7,4678.989,578.993,4686.324,575.386"/>
		<path id="path45127_2_" fill="#010101" d="M4602.482,568.227c-4.458-1.085-17.396,5.896-25.347,7.277
			c-2.522,0.439-4.928,3.108-5.779,5.016c-12.731,29.247-24.143,57.128-34.028,82.526c-12.644,2.159-27.429,5.002-43.975,8.718
			c11.852-30.4,23.821-60.384,35.497-89.221c5.749-14.2-9.388-15.549-15.255-1.175c-7.628,18.688-21.915,53.7-37.727,94.508
			c-11.616,2.849-23.937,6.104-36.816,9.825c-9.358,2.702-9.74,5.194-5.69,10.809c2.229,3.123,6.835,2.808,8.947,5.035
			c5.457,5.77,8.772,12.672,18.54,13.717c-8.713,23.306-17.425,47.343-25.316,70.484c-4.958,14.526,9.152,17.499,14.58,2.126
			c8.742-24.779,17.953-49.857,27.429-74.862c7.89-1.834,26.988-5.948,44.619-9.772c-13.993,38.353-23.205,67.479-26.695,81.657
			c-0.645,2.728,0.44,4.242,1.027,5.354c4.723,6.872,9.211,7.153,15.284,15.653c1.643,2.316,7.158,3.567,9.036-2.139
			c12.966-39.167,26.313-75.914,38.752-108.859c5.163-1.129,14.462-3.373,20.153-11.866c10.12-15.073,13.025-12.016,15.46-16.597
			c3.051-5.753,1.027-11.154-9.768-9.819c0,0-4.078,0.29-11.617,1.149c11.969-30.817,22.443-56.956,29.982-76.874
			C4606.355,574.153,4606.677,569.224,4602.482,568.227"/>
		<path id="path45129_2_" fill="#010101" d="M4584.822,768.101c2.786,7.044,11.499,4.91,8.184-3.59
			c-3.374-8.661-11.763-34.73-13.964-43.13c-2.992-11.316,9.975-8.223,3.403-0.824c-5.632,6.363-9.388,8.914-19.801,21.012
			c-10.062,11.677-7.333,26.832,3.432,30.179c12.145,3.78,22.853-9.604,29.481-19.421c6.425-9.51,0.205-15.085-6.276-9.466
			c-4.167,3.617-8.978,9.165-13.848,12.158c-3.96,2.409-7.069-0.179-1.789-7.447c6.131-8.417,12.995-15.469,18.099-23.423
			c10.416-16.209-10.179-25.552-19.038-15.021c-4.752,5.612-3.55,11.121-2.258,15.848
			C4572.53,732.549,4580.274,756.73,4584.822,768.101"/>
	</g>
</g>
</svg>
